<?xml version="1.0" encoding="UTF-8"?>
<svg xmlns="http://www.w3.org/2000/svg" xmlns:xlink="http://www.w3.org/1999/xlink" width="1728px" height="805px" viewBox="0 0 1728 805" version="1.1">
<g id="surface1">
<path style=" stroke:none;fill-rule:nonzero;fill:rgb(0.392157%,0.392157%,0.392157%);fill-opacity:1;" d="M 0 0 C 570.238281 0 1140.480469 0 1728 0 C 1728 265.648438 1728 531.300781 1728 805 C 1157.761719 805 587.519531 805 0 805 C 0 539.351562 0 273.699219 0 0 Z M 0 0 "/>
<path style=" stroke:none;fill-rule:nonzero;fill:rgb(98.039216%,98.039216%,98.039216%);fill-opacity:1;" d="M 277.644531 264.015625 C 279.820312 263.992188 281.996094 263.96875 284.238281 263.945312 C 299.019531 263.917969 312.960938 265.441406 327.453125 268.332031 C 327.453125 269.636719 327.453125 270.9375 327.453125 272.28125 C 329.972656 272.359375 332.496094 272.441406 335.097656 272.527344 C 358.25 275.199219 383.511719 296.832031 399.027344 313.375 C 415.636719 334.414062 430.027344 361.265625 430.027344 388.6875 C 424.332031 390.285156 419.039062 391.007812 413.136719 391.285156 C 410.550781 391.410156 410.550781 391.410156 407.910156 391.535156 C 406.09375 391.613281 404.28125 391.691406 402.410156 391.773438 C 400.5625 391.855469 398.710938 391.9375 396.808594 392.027344 C 383.542969 392.59375 370.320312 392.882812 357.042969 392.636719 C 356.75 391.558594 356.460938 390.484375 356.164062 389.375 C 352.480469 376.988281 346.882812 367.503906 339.289062 357.121094 C 337.945312 355.003906 336.601562 352.886719 335.21875 350.707031 C 326.332031 340.210938 308.914062 336.328125 295.890625 333.445312 C 274.964844 332.003906 258.839844 331.835938 240.65625 343.308594 C 238.996094 343.96875 237.335938 344.625 235.625 345.304688 C 218.214844 352.332031 207.914062 369.96875 200.695312 386.46875 C 198.703125 391.785156 196.890625 397.050781 195.289062 402.5 C 194.578125 404.777344 193.867188 407.058594 193.136719 409.40625 C 190.316406 420.96875 190.769531 432.71875 190.847656 444.550781 C 190.835938 446.839844 190.820312 449.125 190.804688 451.484375 C 190.875 482.730469 198.144531 513.660156 220.929688 536.667969 C 243.148438 554.484375 266.953125 559.007812 294.875 557.117188 C 310.871094 554.800781 327.917969 545.59375 338.671875 533.582031 C 340.230469 531.347656 341.753906 529.089844 343.234375 526.800781 C 344.109375 525.800781 344.980469 524.800781 345.882812 523.773438 C 354.78125 513.242188 356.558594 500.609375 359.015625 487.339844 C 373.445312 486.964844 387.132812 486.851562 401.230469 490.144531 C 411.382812 492.40625 421.71875 493.71875 432 495.234375 C 432.566406 505.914062 430.828125 514.367188 426.945312 524.210938 C 426.410156 525.589844 425.875 526.964844 425.324219 528.382812 C 411.316406 563.339844 389.84375 587.226562 359.015625 607.695312 C 357.730469 608.75 356.445312 609.808594 355.121094 610.894531 C 349.492188 614.726562 343.660156 616.460938 337.191406 618.546875 C 334.769531 619.339844 332.34375 620.136719 329.847656 620.953125 C 327.078125 621.796875 324.304688 622.640625 321.535156 623.480469 C 319.117188 624.265625 319.117188 624.265625 316.652344 625.066406 C 302.101562 629.507812 288.378906 630.539062 273.207031 630.507812 C 270.789062 630.503906 268.371094 630.5 265.882812 630.496094 C 244.617188 630.066406 226.5625 625.96875 207.125 617.5625 C 204.863281 616.613281 202.601562 615.667969 200.273438 614.695312 C 173.597656 602.417969 148.066406 580.433594 134.136719 554.425781 C 134.136719 553.121094 134.136719 551.820312 134.136719 550.476562 C 132.835938 550.476562 131.53125 550.476562 130.191406 550.476562 C 122.589844 530.960938 115.808594 511.5625 110.464844 491.285156 C 110.121094 490.179688 109.777344 489.070312 109.421875 487.929688 C 108.085938 481.402344 108.015625 474.890625 107.882812 468.25 C 107.855469 466.761719 107.824219 465.277344 107.792969 463.742188 C 106.816406 404.789062 114.863281 354.75 156.824219 310.800781 C 189.667969 277.421875 231.738281 264.042969 277.644531 264.015625 Z M 277.644531 264.015625 "/>
<path style=" stroke:none;fill-rule:nonzero;fill:rgb(97.647059%,97.647059%,97.647059%);fill-opacity:1;" d="M 1270.355469 388.6875 C 1334.988281 388.6875 1334.988281 388.6875 1353.820312 400.773438 C 1371.070312 419.230469 1373.875 436.320312 1373.480469 460.695312 C 1372.828125 476.328125 1367.214844 488.695312 1356.566406 500.105469 C 1331.128906 522.980469 1306.34375 516.9375 1270.355469 516.9375 C 1270.355469 474.613281 1270.355469 432.292969 1270.355469 388.6875 Z M 1270.355469 388.6875 "/>
<path style=" stroke:none;fill-rule:nonzero;fill:rgb(0.784314%,0.784314%,0.784314%);fill-opacity:1;" d="M 1525.808594 407.433594 C 1535.972656 413.585938 1542.046875 423.144531 1547.261719 433.574219 C 1550.609375 451 1550.140625 468.011719 1540.601562 483.394531 C 1531.855469 493.238281 1522.71875 500.230469 1509.371094 501.816406 C 1496.472656 501.984375 1485.851562 501.574219 1475.507812 493.261719 C 1470.980469 488.328125 1467.167969 483.179688 1463.671875 477.476562 C 1462.558594 475.78125 1462.558594 475.78125 1461.421875 474.054688 C 1456.582031 461.289062 1457.0625 439.507812 1462.683594 426.917969 C 1476.292969 405.304688 1501.890625 396.886719 1525.808594 407.433594 Z M 1525.808594 407.433594 "/>
<path style=" stroke:none;fill-rule:nonzero;fill:rgb(97.254902%,97.254902%,97.254902%);fill-opacity:1;" d="M 729.863281 388.6875 C 737.675781 388.6875 745.484375 388.6875 753.535156 388.6875 C 762.605469 409.96875 770.914062 431.527344 779.203125 453.121094 C 781.65625 459.5 784.121094 465.875 786.589844 472.25 C 788.160156 476.328125 789.726562 480.410156 791.292969 484.488281 C 792.027344 486.382812 792.761719 488.273438 793.519531 490.226562 C 796.914062 499.117188 799.824219 507.402344 800.875 516.9375 C 794.367188 516.9375 787.859375 516.9375 781.152344 516.9375 C 777.246094 507.167969 773.339844 497.402344 769.316406 487.339844 C 751.089844 487.339844 732.863281 487.339844 714.082031 487.339844 C 710.175781 497.105469 706.269531 506.875 702.246094 516.9375 C 695.738281 516.9375 689.226562 516.9375 682.519531 516.9375 C 686.578125 502.847656 691.277344 489.214844 696.574219 475.546875 C 697.339844 473.554688 698.105469 471.5625 698.894531 469.507812 C 701.320312 463.203125 703.757812 456.898438 706.191406 450.59375 C 708.625 444.273438 711.054688 437.953125 713.488281 431.632812 C 714.996094 427.71875 716.503906 423.804688 718.011719 419.894531 C 722.019531 409.511719 725.976562 399.113281 729.863281 388.6875 Z M 729.863281 388.6875 "/>
<path style=" stroke:none;fill-rule:nonzero;fill:rgb(96.862745%,96.862745%,96.862745%);fill-opacity:1;" d="M 1537.605469 393.535156 C 1552.03125 402.371094 1562.015625 415.636719 1567.449219 431.703125 C 1571.539062 454.742188 1568.542969 475.730469 1555.621094 495.464844 C 1546.191406 507.503906 1533.539062 514.902344 1518.902344 518.910156 C 1496.394531 520.914062 1479.070312 519.175781 1461.207031 504.480469 C 1445.539062 489.839844 1437.855469 474.914062 1437.042969 453.304688 C 1437.453125 434.550781 1443.121094 417.394531 1456.152344 403.546875 C 1479.433594 383.875 1510.121094 380.109375 1537.605469 393.535156 Z M 1466.160156 422.46875 C 1457.019531 436.082031 1457.515625 453.789062 1459.726562 469.582031 C 1464.527344 483.410156 1472.933594 491.902344 1485.371094 499.179688 C 1497.386719 503.1875 1511.925781 503.347656 1523.589844 498.070312 C 1535.140625 491.222656 1543.402344 480.972656 1547.570312 468.203125 C 1550.625 453.195312 1550.101562 437.742188 1542.574219 424.203125 C 1535.800781 414.136719 1528.613281 407.714844 1516.929688 404.472656 C 1494.121094 401.890625 1481.03125 404.90625 1466.160156 422.46875 Z M 1466.160156 422.46875 "/>
<path style=" stroke:none;fill-rule:nonzero;fill:rgb(96.470588%,96.470588%,96.470588%);fill-opacity:1;" d="M 648.984375 394.609375 C 665.316406 406.359375 673.019531 418.3125 676.601562 438.015625 C 669.441406 438.015625 662.28125 438.015625 654.902344 438.015625 C 653.925781 434.535156 653.925781 434.535156 652.929688 430.984375 C 649.132812 420.71875 642.054688 414.574219 633.207031 408.417969 C 622.039062 404.695312 606.496094 403.714844 595.433594 408.140625 C 592.023438 410.441406 592.023438 410.441406 587.835938 414.339844 C 585.882812 414.988281 583.929688 415.640625 581.917969 416.3125 C 579.648438 420.746094 579.648438 420.746094 577.972656 426.175781 C 577.296875 427.921875 576.625 429.671875 575.929688 431.472656 C 571.871094 445.433594 571.03125 465.246094 577.109375 478.707031 C 582.914062 488.058594 591.191406 495.695312 601.644531 499.179688 C 615.601562 500.515625 628.183594 501.15625 639.808594 492.527344 C 647.761719 484.6875 652.210938 476.40625 654.902344 465.636719 C 662.066406 465.636719 669.226562 465.636719 676.601562 465.636719 C 675.914062 481.492188 667.921875 494.96875 656.507812 505.839844 C 639.628906 518.8125 620.367188 520.9375 599.671875 518.910156 C 583.761719 515.757812 570.734375 505.640625 561.574219 492.519531 C 559.75 489.511719 557.976562 486.472656 556.273438 483.394531 C 555.601562 482.203125 554.925781 481.015625 554.230469 479.789062 C 547.375 465.113281 548.074219 446.734375 552.089844 431.394531 C 559.433594 412.265625 571.164062 397.648438 589.808594 388.6875 C 607.851562 382.445312 632.867188 384.753906 648.984375 394.609375 Z M 648.984375 394.609375 "/>
<path style=" stroke:none;fill-rule:nonzero;fill:rgb(96.862745%,96.862745%,96.862745%);fill-opacity:1;" d="M 987.289062 390.785156 C 995.890625 395.84375 1003.261719 401.457031 1008 410.390625 C 1009.453125 416.503906 1009.777344 421.816406 1009.972656 428.148438 C 1003.464844 428.148438 996.953125 428.148438 990.246094 428.148438 C 989.800781 426.398438 989.351562 424.648438 988.890625 422.847656 C 985.925781 415.359375 982.523438 411.640625 976.4375 406.445312 C 968.425781 403.773438 961.144531 403.402344 952.765625 404.472656 C 944.335938 408.863281 944.335938 408.863281 938.957031 416.3125 C 937.972656 421.980469 937.972656 421.980469 938.957031 428.148438 C 946.761719 438.296875 954.003906 439.964844 965.957031 441.960938 C 981.839844 445.058594 996.742188 448.316406 1008.4375 460.242188 C 1014.714844 469.902344 1013.472656 480.195312 1011.945312 491.285156 C 1008.664062 500.519531 1003.640625 506.660156 995.300781 511.757812 C 977.355469 519.945312 959.230469 522.53125 940.191406 515.949219 C 928.21875 510.46875 920.554688 501.394531 914.425781 489.929688 C 913.316406 485.367188 913.316406 485.367188 913.316406 475.503906 C 919.824219 475.503906 926.335938 475.503906 933.042969 475.503906 C 934.390625 479.421875 935.738281 483.339844 937.085938 487.257812 C 940.472656 494.546875 945.386719 498.195312 952.765625 501.152344 C 965.019531 502.925781 975.296875 500.640625 986.300781 495.234375 C 990.179688 490.542969 990.230469 487.480469 990.984375 481.421875 C 990.714844 475.511719 990.714844 475.511719 987.457031 471.496094 C 980.007812 465.820312 972.175781 464.589844 963.125 462.675781 C 933.386719 456.277344 933.386719 456.277344 922.316406 444.921875 C 916.40625 435.46875 916.003906 425.246094 917.261719 414.339844 C 922.335938 401.3125 930.820312 395.320312 942.902344 388.6875 C 957.003906 383.988281 973.792969 384.519531 987.289062 390.785156 Z M 987.289062 390.785156 "/>
<path style=" stroke:none;fill-rule:nonzero;fill:rgb(97.254902%,97.254902%,97.254902%);fill-opacity:1;" d="M 1144.109375 388.6875 C 1150.621094 388.6875 1157.128906 388.6875 1163.835938 388.6875 C 1163.863281 391.367188 1163.894531 394.042969 1163.921875 396.800781 C 1164.039062 406.769531 1164.191406 416.738281 1164.351562 426.707031 C 1164.417969 431.015625 1164.472656 435.320312 1164.519531 439.628906 C 1164.585938 445.835938 1164.6875 452.039062 1164.796875 458.246094 C 1164.8125 460.160156 1164.824219 462.074219 1164.835938 464.046875 C 1165.109375 476.730469 1166.097656 487.804688 1175.671875 497.082031 C 1187.113281 501.136719 1198.714844 500.648438 1210.191406 496.960938 C 1216.539062 492.195312 1218.164062 488.871094 1221.042969 481.421875 C 1221.941406 474.277344 1222.003906 467.175781 1222.050781 459.980469 C 1222.085938 457.9375 1222.121094 455.898438 1222.15625 453.792969 C 1222.265625 447.300781 1222.332031 440.808594 1222.398438 434.316406 C 1222.460938 429.902344 1222.53125 425.488281 1222.601562 421.074219 C 1222.769531 410.28125 1222.902344 399.484375 1223.015625 388.6875 C 1229.523438 388.6875 1236.03125 388.6875 1242.738281 388.6875 C 1242.886719 401.886719 1242.992188 415.085938 1243.066406 428.285156 C 1243.09375 432.769531 1243.136719 437.253906 1243.1875 441.742188 C 1243.257812 448.207031 1243.292969 454.671875 1243.316406 461.136719 C 1243.347656 463.125 1243.378906 465.117188 1243.410156 467.167969 C 1243.414062 481.625 1241.878906 493.164062 1232.261719 504.605469 C 1214.597656 519.394531 1199.726562 520.433594 1177.644531 518.910156 C 1165.40625 515.882812 1156.722656 507.695312 1150.027344 497.207031 C 1143.574219 485.113281 1143.324219 474.886719 1143.53125 461.328125 C 1143.539062 459.246094 1143.546875 457.164062 1143.558594 455.019531 C 1143.589844 448.40625 1143.664062 441.792969 1143.738281 435.179688 C 1143.769531 430.679688 1143.796875 426.179688 1143.820312 421.679688 C 1143.886719 410.683594 1143.988281 399.6875 1144.109375 388.6875 Z M 1144.109375 388.6875 "/>
<path style=" stroke:none;fill-rule:nonzero;fill:rgb(0.784314%,0.784314%,0.784314%);fill-opacity:1;" d="M 1290.082031 404.472656 C 1326.6875 404.472656 1326.6875 404.472656 1339.398438 414.339844 C 1350.566406 425.691406 1353.449219 435.574219 1353.699219 451.332031 C 1353.546875 466.738281 1350.585938 480.097656 1339.398438 491.285156 C 1323.382812 502.5 1311.261719 499.179688 1290.082031 499.179688 C 1290.082031 467.925781 1290.082031 436.671875 1290.082031 404.472656 Z M 1290.082031 404.472656 "/>
<path style=" stroke:none;fill-rule:nonzero;fill:rgb(96.078432%,96.078432%,96.078432%);fill-opacity:1;" d="M 1023.78125 388.6875 C 1058.28125 388.6875 1092.78125 388.6875 1128.328125 388.6875 C 1128.328125 394.546875 1128.328125 400.410156 1128.328125 406.445312 C 1114.660156 406.445312 1100.988281 406.445312 1086.902344 406.445312 C 1086.902344 442.90625 1086.902344 479.371094 1086.902344 516.9375 C 1080.394531 516.9375 1073.886719 516.9375 1067.179688 516.9375 C 1067.179688 480.472656 1067.179688 444.011719 1067.179688 406.445312 C 1052.855469 406.445312 1038.535156 406.445312 1023.78125 406.445312 C 1023.78125 400.585938 1023.78125 394.726562 1023.78125 388.6875 Z M 1023.78125 388.6875 "/>
<path style=" stroke:none;fill-rule:nonzero;fill:rgb(98.431373%,98.431373%,98.431373%);fill-opacity:1;" d="M 820.601562 388.6875 C 827.113281 388.6875 833.621094 388.6875 840.328125 388.6875 C 840.328125 425.152344 840.328125 461.613281 840.328125 499.179688 C 859.859375 499.179688 879.386719 499.179688 899.507812 499.179688 C 899.507812 505.039062 899.507812 510.898438 899.507812 516.9375 C 873.46875 516.9375 847.429688 516.9375 820.601562 516.9375 C 820.601562 474.613281 820.601562 432.292969 820.601562 388.6875 Z M 820.601562 388.6875 "/>
<path style=" stroke:none;fill-rule:nonzero;fill:rgb(98.431373%,98.431373%,98.431373%);fill-opacity:1;" d="M 1396.601562 388.6875 C 1403.113281 388.6875 1409.621094 388.6875 1416.328125 388.6875 C 1416.328125 431.011719 1416.328125 473.332031 1416.328125 516.9375 C 1409.820312 516.9375 1403.308594 516.9375 1396.601562 516.9375 C 1396.601562 474.613281 1396.601562 432.292969 1396.601562 388.6875 Z M 1396.601562 388.6875 "/>
<path style=" stroke:none;fill-rule:nonzero;fill:rgb(4.705882%,4.705882%,4.705882%);fill-opacity:1;" d="M 739.726562 412.363281 C 741.027344 412.363281 742.328125 412.363281 743.671875 412.363281 C 746.976562 420.785156 750.257812 429.214844 753.535156 437.644531 C 754.476562 440.042969 755.414062 442.4375 756.386719 444.910156 C 757.273438 447.203125 758.164062 449.5 759.082031 451.863281 C 759.910156 453.984375 760.734375 456.101562 761.585938 458.28125 C 763.398438 463.664062 763.398438 463.664062 763.398438 469.582031 C 749.074219 469.582031 734.753906 469.582031 720 469.582031 C 721.539062 461.894531 723.300781 455.636719 726.046875 448.394531 C 726.84375 446.292969 727.636719 444.1875 728.457031 442.019531 C 729.285156 439.84375 730.117188 437.667969 730.972656 435.425781 C 731.808594 433.210938 732.648438 430.996094 733.511719 428.714844 C 735.578125 423.261719 737.648438 417.8125 739.726562 412.363281 Z M 739.726562 412.363281 "/>
<path style=" stroke:none;fill-rule:nonzero;fill:rgb(20.784314%,20.784314%,20.784314%);fill-opacity:1;" d="M 232.765625 343.308594 C 234.070312 343.960938 235.371094 344.609375 236.710938 345.28125 C 220.519531 364.09375 220.519531 364.09375 213.042969 370.929688 C 211.738281 370.929688 210.4375 370.929688 209.097656 370.929688 C 214.257812 359.742188 222.417969 350.078125 232.765625 343.308594 Z M 232.765625 343.308594 "/>
<path style=" stroke:none;fill-rule:nonzero;fill:rgb(74.901962%,74.901962%,74.901962%);fill-opacity:1;" d="M 165.699219 301.875 C 167 302.527344 168.300781 303.175781 169.644531 303.847656 C 163.785156 310.359375 157.925781 316.871094 151.890625 323.578125 C 150.589844 322.925781 149.285156 322.277344 147.945312 321.605469 C 153.804688 315.09375 159.664062 308.582031 165.699219 301.875 Z M 165.699219 301.875 "/>
</g>
</svg>
